<?xml version="1.0" encoding="UTF-8" standalone="no"?>
<!-- Created with Inkscape (http://www.inkscape.org/) -->

<svg
   width="1280"
   height="640"
   viewBox="0 0 264.58329 132.29164"
   version="1.1"
   id="svg5"
   inkscape:version="1.2 (dc2aedaf03, 2022-05-15)"
   sodipodi:docname="banner.svg"
   inkscape:export-filename=".\banner.png"
   inkscape:export-xdpi="96"
   inkscape:export-ydpi="96"
   xml:space="preserve"
   xmlns:inkscape="http://www.inkscape.org/namespaces/inkscape"
   xmlns:sodipodi="http://sodipodi.sourceforge.net/DTD/sodipodi-0.dtd"
   xmlns:xlink="http://www.w3.org/1999/xlink"
   xmlns="http://www.w3.org/2000/svg"
   xmlns:svg="http://www.w3.org/2000/svg"
   xmlns:rdf="http://www.w3.org/1999/02/22-rdf-syntax-ns#"
   xmlns:cc="http://creativecommons.org/ns#"
   xmlns:dc="http://purl.org/dc/elements/1.1/"><sodipodi:namedview
     id="namedview7"
     pagecolor="#ffffff"
     bordercolor="#666666"
     borderopacity="1.0"
     inkscape:showpageshadow="2"
     inkscape:pageopacity="0.0"
     inkscape:pagecheckerboard="0"
     inkscape:deskcolor="#d1d1d1"
     inkscape:document-units="mm"
     showgrid="false"
     inkscape:zoom="0.91490602"
     inkscape:cx="547.05072"
     inkscape:cy="237.18283"
     inkscape:window-width="2560"
     inkscape:window-height="1369"
     inkscape:window-x="-8"
     inkscape:window-y="-8"
     inkscape:window-maximized="1"
     inkscape:current-layer="layer1"><inkscape:grid
       type="xygrid"
       id="grid3750"
       originx="0"
       originy="0" /><sodipodi:guide
       position="0,66.145822"
       orientation="0,320"
       id="guide5143"
       inkscape:locked="false" /><sodipodi:guide
       position="66.145821,66.145822"
       orientation="-320,0"
       id="guide5145"
       inkscape:locked="false" /></sodipodi:namedview><defs
     id="defs2"><linearGradient
       inkscape:collect="always"
       id="linearGradient7778"><stop
         style="stop-color:#a854de;stop-opacity:1;"
         offset="0.40394974"
         id="stop7774" /><stop
         style="stop-color:#c792ea;stop-opacity:1;"
         offset="1"
         id="stop7776" /></linearGradient><linearGradient
       inkscape:collect="always"
       id="linearGradient6318"><stop
         style="stop-color:#3374ff;stop-opacity:1;"
         offset="0.39856374"
         id="stop6314" /><stop
         style="stop-color:#82aaff;stop-opacity:1;"
         offset="1"
         id="stop6316" /></linearGradient><radialGradient
       inkscape:collect="always"
       xlink:href="#linearGradient6318"
       id="radialGradient6320"
       cx="66.418594"
       cy="63.269749"
       fx="66.418594"
       fy="63.269749"
       r="36.677063"
       gradientTransform="matrix(1,0,0,0.97358491,0,1.6712764)"
       gradientUnits="userSpaceOnUse" /><radialGradient
       inkscape:collect="always"
       xlink:href="#linearGradient7778"
       id="radialGradient7780"
       cx="82.608521"
       cy="-39.634563"
       fx="82.608521"
       fy="-39.634563"
       r="64.882622"
       gradientTransform="matrix(1,0,0,0.36231868,0,-25.274219)"
       gradientUnits="userSpaceOnUse" /><radialGradient
       inkscape:collect="always"
       xlink:href="#linearGradient6318"
       id="radialGradient3912"
       cx="66.418594"
       cy="63.269749"
       fx="66.418594"
       fy="63.269749"
       r="36.677063"
       gradientTransform="matrix(1,0,0,0.97358491,0,1.6712764)"
       gradientUnits="userSpaceOnUse" /><radialGradient
       inkscape:collect="always"
       xlink:href="#linearGradient7778"
       id="radialGradient3924"
       cx="82.608521"
       cy="-39.634563"
       fx="82.608521"
       fy="-39.634563"
       r="64.882622"
       gradientTransform="matrix(1,0,0,0.36231868,0,-25.274219)"
       gradientUnits="userSpaceOnUse" /><radialGradient
       inkscape:collect="always"
       xlink:href="#linearGradient7778"
       id="radialGradient4602"
       gradientUnits="userSpaceOnUse"
       gradientTransform="matrix(1,0,0,0.36231868,0,-25.274219)"
       cx="82.608521"
       cy="-39.634563"
       fx="82.608521"
       fy="-39.634563"
       r="64.882622" /><radialGradient
       inkscape:collect="always"
       xlink:href="#linearGradient6318"
       id="radialGradient4604"
       gradientUnits="userSpaceOnUse"
       gradientTransform="matrix(1,0,0,0.97358491,0,1.6712764)"
       cx="66.418594"
       cy="63.269749"
       fx="66.418594"
       fy="63.269749"
       r="36.677063" /><radialGradient
       inkscape:collect="always"
       xlink:href="#linearGradient7778"
       id="radialGradient4606"
       gradientUnits="userSpaceOnUse"
       gradientTransform="matrix(1,0,0,0.36231868,0,-25.274219)"
       cx="82.608521"
       cy="-39.634563"
       fx="82.608521"
       fy="-39.634563"
       r="64.882622" /><radialGradient
       inkscape:collect="always"
       xlink:href="#linearGradient6318"
       id="radialGradient4608"
       gradientUnits="userSpaceOnUse"
       gradientTransform="matrix(1,0,0,0.97358491,0,1.6712764)"
       cx="66.418594"
       cy="63.269749"
       fx="66.418594"
       fy="63.269749"
       r="36.677063" /></defs><g
     inkscape:label="Layer 1"
     inkscape:groupmode="layer"
     id="layer1"
     style="display:inline"><g
       id="g3114"
       inkscape:label="Logo"><g
         id="g4151"
         inkscape:label="Original"
         style="display:none"><text
           xml:space="preserve"
           style="font-style:normal;font-variant:normal;font-weight:normal;font-stretch:normal;font-size:75.2262px;line-height:1.25;font-family:'JetBrains Mono';-inkscape-font-specification:'JetBrains Mono, Normal';font-variant-ligatures:normal;font-variant-caps:normal;font-variant-numeric:normal;font-variant-east-asian:normal;display:inline;mix-blend-mode:normal;fill:url(#radialGradient4602);fill-opacity:1;stroke:none;stroke-width:1.88066"
           x="17.725901"
           y="-16.126375"
           id="text190"
           transform="rotate(69.893831)"><tspan
             sodipodi:role="line"
             id="tspan188"
             x="17.725901"
             y="-16.126375"
             style="font-style:normal;font-variant:normal;font-weight:normal;font-stretch:normal;font-size:75.2262px;font-family:'JetBrains Mono';-inkscape-font-specification:'JetBrains Mono, Normal';font-variant-ligatures:normal;font-variant-caps:normal;font-variant-numeric:normal;font-variant-east-asian:normal;fill:url(#radialGradient4602);fill-opacity:1;stroke-width:1.88066">&lt;-&gt;</tspan></text><text
           xml:space="preserve"
           style="font-style:normal;font-variant:normal;font-weight:normal;font-stretch:normal;font-size:138.404px;line-height:1.25;font-family:'JetBrains Mono';-inkscape-font-specification:'JetBrains Mono, Normal';font-variant-ligatures:normal;font-variant-caps:normal;font-variant-numeric:normal;font-variant-east-asian:normal;display:inline;fill:url(#radialGradient4604);fill-opacity:1;stroke:none;stroke-width:3.46009"
           x="24.897388"
           y="111.98796"
           id="text186"><tspan
             sodipodi:role="line"
             id="tspan184"
             x="24.897388"
             y="111.98796"
             style="font-style:normal;font-variant:normal;font-weight:normal;font-stretch:normal;font-size:138.404px;font-family:'JetBrains Mono';-inkscape-font-specification:'JetBrains Mono, Normal';font-variant-ligatures:normal;font-variant-caps:normal;font-variant-numeric:normal;font-variant-east-asian:normal;fill:url(#radialGradient4604);fill-opacity:1;stroke-width:3.46009">*</tspan></text></g><g
         id="g4175"
         inkscape:label="Path"><g
           aria-label="&lt;-&gt;"
           transform="rotate(69.893831)"
           id="text4155"
           style="font-size:75.2262px;line-height:1.25;font-family:'JetBrains Mono';-inkscape-font-specification:'JetBrains Mono, Normal';display:inline;fill:url(#radialGradient7780);stroke-width:1.88066"><path
             d="M 40.745173,-18.759292 23.367922,-40.95102 40.820399,-63.142748 h 7.898751 l -15.270918,19.18268 H 137.41084 l -15.27092,-19.18268 h 7.97397 l 17.37726,22.191728 -17.45248,22.191728 h -7.89875 l 15.27092,-19.18268 H 33.523458 l 15.195692,19.18268 z"
             id="path4168"
             style="fill:url(#radialGradient4606)" /></g><g
           aria-label="*"
           id="text4159"
           style="font-size:138.404px;line-height:1.25;font-family:'JetBrains Mono';-inkscape-font-specification:'JetBrains Mono, Normal';display:inline;fill:url(#radialGradient6320);stroke-width:3.46009"><path
             d="m 49.948514,98.977984 -9.965089,-6.9202 7.473817,-10.795513 q 1.799252,-2.629676 4.290524,-5.120948 2.491272,-2.629676 4.982544,-4.84414 2.629676,-2.352868 4.567332,-4.013716 L 60.88243,66.314639 Q 58.252754,66.037831 54.931058,65.761022 51.609362,65.34581 48.149262,64.65379 44.827565,63.823366 41.921081,62.854538 l -12.179552,-4.428928 4.15212,-11.487532 12.179553,4.428928 q 2.906484,0.968828 5.951372,2.76808 3.183292,1.660848 6.089776,3.598504 2.906484,1.799252 4.982544,3.4601 l 0.69202,-0.553616 q -0.69202,-2.629676 -1.522444,-5.951372 -0.830424,-3.4601 -1.38404,-7.058604 -0.553616,-3.736909 -0.553616,-6.920201 v -13.14838 h 12.179553 v 13.14838 q 0,3.183292 -0.553616,6.920201 -0.553616,3.598504 -1.38404,7.058604 -0.830424,3.321696 -1.660848,5.951372 l 0.69202,0.553616 q 2.214464,-1.660848 4.982544,-3.4601 2.906484,-1.937656 5.951372,-3.598504 3.183292,-1.799252 6.089777,-2.76808 l 12.317956,-4.428928 4.152118,11.487532 -12.317954,4.428928 q -2.76808,0.968828 -6.228181,1.799252 -3.321696,0.69202 -6.643392,1.107232 -3.321696,0.276809 -5.951372,0.553617 l -0.553616,1.107232 q 2.07606,1.660848 4.567332,4.013716 2.629676,2.214464 4.982544,4.84414 2.491272,2.491272 4.15212,4.982544 l 7.612221,10.795513 -9.965089,6.9202 -7.61222,-10.795512 q -1.660848,-2.491273 -3.321696,-5.674565 -1.522444,-3.183292 -2.906484,-6.366584 -1.245636,-3.183292 -2.07606,-5.674564 h -0.968828 q -0.830425,2.491272 -2.214465,5.674564 -1.245636,3.183292 -2.906484,6.366584 -1.522444,3.183292 -3.321696,5.674565 z"
             id="path4165"
             style="fill:url(#radialGradient4608)" /></g></g><path
         id="logo-border"
         style="font-style:normal;font-variant:normal;font-weight:normal;font-stretch:normal;font-size:75.2262px;line-height:1.25;font-family:'JetBrains Mono';-inkscape-font-specification:'JetBrains Mono, Normal';font-variant-ligatures:normal;font-variant-caps:normal;font-variant-numeric:normal;font-variant-east-asian:normal;display:inline;mix-blend-mode:normal;fill:none;fill-opacity:1;stroke:#000000;stroke-width:0.529167;stroke-linejoin:round;stroke-dasharray:none;stroke-opacity:1"
         d="m 23.368078,-40.95074 17.377383,22.191305 7.973801,1.73e-4 -15.19567,-19.182636 45.197987,-2.73e-4 c -1.39784,0.874729 -2.903536,1.939785 -4.529174,3.216023 -1.879135,1.375508 -3.703013,2.869268 -5.472293,4.481506 -1.824207,1.493873 -3.372904,3.039696 -4.645516,4.637234 l -8.34565,9.914956 9.359731,7.8479876 8.346136,-9.9147776 c 1.272612,-1.597539 2.549727,-3.341226 3.830849,-5.230421 1.226194,-2.00756 2.349481,-4.003352 3.370664,-5.987703 0.934538,-2.016069 1.790185,-3.815597 2.566129,-5.398436 l 1.052046,-0.05677 c 0.595694,1.593668 1.328759,3.483092 2.199091,5.668583 0.815403,2.067127 1.760754,4.181932 2.836096,6.344214 0.988696,2.130564 2.100131,4.060601 3.334066,5.789653 l 7.568726,10.72914 9.92376,-6.978664 -7.56854,-10.729626 c -1.14729,-1.697333 -2.54244,-3.387213 -4.186392,-5.069847 -1.612238,-1.76928 -3.272568,-3.408567 -4.979962,-4.917909 -1.675674,-1.595988 -3.19758,-2.939586 -4.566899,-4.030396 l 0.115113,-0.314456 48.48109,-2.86e-4 -15.2707,19.182762 7.89892,2.77e-4 17.4524,-22.19164 -17.3772,-22.19179 -7.97429,-3.51e-4 15.27104,19.18271 -16.09132,-1.25e-4 -2.99994,-11.458711 -12.75449,3.436899 c -1.94025,0.46882 -3.97579,1.197622 -6.10635,2.186318 -2.185492,0.870331 -4.27278,1.874978 -6.26177,3.013757 -1.980147,0.988577 -3.706849,1.928383 -5.191067,2.82184 l -0.230023,-8e-6 -0.767219,-0.812997 c 0.42936,-1.709713 0.937754,-3.63636 1.525707,-5.779303 0.501307,-2.174662 0.91614,-4.380575 1.244154,-6.618675 0.273087,-2.356463 0.423572,-4.512576 0.451421,-6.467528 l 0.07505,-13.089508 -12.21446,-0.04968 -0.07553,13.089329 c -0.05957,2.041598 0.109199,4.265356 0.506072,6.670558 0.341945,2.286837 0.786247,4.561686 1.333203,6.825314 0.492028,2.145263 1.004283,4.101525 1.53654,5.868486 l -0.600475,0.364053 -0.283489,2.3e-4 c -1.427137,-1.095552 -3.054986,-2.26491 -4.89155,-3.510341 -1.975841,-1.312841 -4.026667,-2.55472 -6.152592,-3.725987 -2.21257,-1.202985 -4.315636,-2.169198 -6.308497,-2.898725 l -12.346757,-4.519779 -4.186875,11.437359 8.788748,3.217298 -21.960912,1.17e-4 15.2707,-19.182762 -7.898436,-9.9e-5 z"
         transform="rotate(69.893831)" /></g><g
       id="g4018"
       inkscape:label="Banner Text"
       transform="matrix(0.97213651,0,0,0.97213651,-0.60700896,1.1325839)"><g
         id="g4103"
         inkscape:label="Raw"
         style="display:none"><text
           xml:space="preserve"
           style="font-style:normal;font-weight:normal;font-size:8.53494px;line-height:1.25;font-family:sans-serif;display:inline;fill:#a854de;fill-opacity:1;stroke:none;stroke-width:0.213374"
           x="124.51033"
           y="70.827232"
           id="text3236"><tspan
             sodipodi:role="line"
             id="tspan3234"
             style="font-style:normal;font-variant:normal;font-weight:normal;font-stretch:normal;font-size:37.9805px;font-family:'JetBrains Mono';-inkscape-font-specification:'JetBrains Mono, Normal';font-variant-ligatures:normal;font-variant-caps:normal;font-variant-numeric:normal;font-variant-east-asian:normal;fill:#a854de;fill-opacity:1;stroke-width:0.213374"
             x="124.51033"
             y="70.827232"><tspan
   style="fill:#5f92ff;fill-opacity:1"
   id="tspan3275">P</tspan>ulsar</tspan></text><text
           xml:space="preserve"
           style="font-style:normal;font-weight:normal;font-size:8.53494px;line-height:1.25;font-family:sans-serif;fill:#000000;fill-opacity:1;stroke:none;stroke-width:0.213374"
           x="125.17008"
           y="70.40049"
           id="text3232"><tspan
             sodipodi:role="line"
             id="tspan3230"
             style="font-style:normal;font-variant:normal;font-weight:normal;font-stretch:normal;font-size:37.9805px;font-family:'JetBrains Mono';-inkscape-font-specification:'JetBrains Mono, Normal';font-variant-ligatures:normal;font-variant-caps:normal;font-variant-numeric:normal;font-variant-east-asian:normal;stroke-width:0.213374"
             x="125.17008"
             y="70.40049">Pulsar</tspan></text></g><g
         id="g4145"
         inkscape:label="Path"><g
           aria-label="Pulsar"
           id="text4092"
           style="font-size:8.53494px;line-height:1.25;display:inline;fill:#a854de;stroke-width:0.213374"><path
             d="M 128.00454,70.827232 V 43.101468 h 8.92541 q 2.58268,0 4.4817,1.025473 1.89903,0.987493 2.9245,2.810557 1.06345,1.823064 1.06345,4.329777 0,2.468733 -1.06345,4.329777 -1.02547,1.823064 -2.9245,2.848538 -1.89902,0.987493 -4.4817,0.987493 h -5.50717 v 11.394149 z m 3.41824,-14.47057 h 5.50717 q 2.24085,0 3.57017,-1.367298 1.3673,-1.405278 1.3673,-3.722089 0,-2.354791 -1.3673,-3.722089 -1.32932,-1.367298 -3.57017,-1.367298 h -5.50717 z"
             style="fill:#5f92ff"
             id="path4118" /><path
             d="m 158.65481,71.207037 q -3.60814,0 -5.77303,-2.126908 -2.16489,-2.164888 -2.16489,-5.848996 V 49.937958 h 3.41824 v 13.293175 q 0,2.35479 1.21538,3.684108 1.21538,1.291337 3.3043,1.291337 2.12691,0 3.34229,-1.291337 1.25335,-1.329318 1.25335,-3.684108 V 49.937958 h 3.41825 v 13.293175 q 0,3.684108 -2.20287,5.848996 -2.20287,2.126908 -5.81102,2.126908 z"
             style="font-size:37.9805px;font-family:'JetBrains Mono';-inkscape-font-specification:'JetBrains Mono, Normal'"
             id="path4120" /><path
             d="m 184.51955,70.827232 q -1.82306,0 -3.19036,-0.721629 -1.3673,-0.72163 -2.12691,-2.050947 -0.75961,-1.329318 -0.75961,-3.114401 V 46.215869 h -7.2163 v -3.114401 h 10.63454 v 21.838787 q 0,1.291337 0.72163,2.050947 0.72163,0.721629 1.93701,0.721629 h 6.45668 v 3.114401 z"
             style="font-size:37.9805px;font-family:'JetBrains Mono';-inkscape-font-specification:'JetBrains Mono, Normal'"
             id="path4122" /><path
             d="m 203.62376,71.131076 q -2.12691,0 -3.79805,-0.645668 -1.67115,-0.683649 -2.62066,-1.937006 -0.91153,-1.253356 -0.91153,-2.962479 h 3.49421 q 0,1.177396 1.10143,1.861045 1.13941,0.645668 2.81056,0.645668 h 1.59518 q 2.01296,0 3.00046,-0.79759 0.98749,-0.835571 0.98749,-2.202869 0,-1.329318 -0.94951,-2.088927 -0.91153,-0.797591 -2.65864,-1.063454 l -2.81055,-0.455766 q -3.1144,-0.531727 -4.59564,-1.974986 -1.48124,-1.443259 -1.48124,-3.987953 0,-2.848537 1.82306,-4.367757 1.86104,-1.51922 5.31727,-1.51922 h 1.44326 q 3.19036,0 5.08939,1.443259 1.937,1.405278 1.937,3.760069 h -3.4942 q 0,-0.987493 -0.9875,-1.5572 -0.94951,-0.607688 -2.62065,-0.607688 h -1.44326 q -1.78508,0 -2.77258,0.75961 -0.94951,0.721629 -0.94951,2.088927 0,2.27883 3.22834,2.810557 l 2.81056,0.455766 q 3.38026,0.531727 4.89948,1.974986 1.5572,1.443259 1.5572,4.177855 0,2.886518 -1.86104,4.55766 -1.82306,1.633161 -5.54515,1.633161 z"
             style="font-size:37.9805px;font-family:'JetBrains Mono';-inkscape-font-specification:'JetBrains Mono, Normal'"
             id="path4124" /><path
             d="m 225.23468,71.207037 q -3.30431,0 -5.20333,-1.671142 -1.89903,-1.709122 -1.89903,-4.59564 0,-2.924498 1.89903,-4.59564 1.89902,-1.671142 5.12736,-1.671142 h 6.45669 v -2.088928 q 0,-1.899025 -1.1774,-2.962479 -1.13941,-1.063454 -3.19036,-1.063454 -1.82306,0 -3.07642,0.797591 -1.25336,0.79759 -1.5572,2.088927 h -3.41824 q 0.1899,-1.747103 1.25335,-3.07642 1.10144,-1.329318 2.84854,-2.050947 1.78508,-0.75961 3.94997,-0.75961 3.60815,0 5.69708,1.861044 2.08892,1.861045 2.08892,5.051407 v 14.356628 h -3.34228 V 66.83928 h -0.56971 l 0.56971,-0.569708 q 0,2.27883 -1.78508,3.608148 -1.74711,1.329317 -4.6716,1.329317 z m 0.83557,-2.696615 q 2.43075,0 3.98795,-1.215376 1.5572,-1.215376 1.5572,-3.114401 v -2.962479 h -6.38072 q -1.70913,0 -2.69662,0.949513 -0.98749,0.949512 -0.98749,2.582673 0,1.747103 1.17739,2.772577 1.21538,0.987493 3.34229,0.987493 z"
             style="font-size:37.9805px;font-family:'JetBrains Mono';-inkscape-font-specification:'JetBrains Mono, Normal'"
             id="path4126" /><path
             d="M 242.59178,70.827232 V 49.937958 h 3.41824 v 3.987952 h 0.72163 l -0.72163,0.797591 q 0,-2.468733 1.48124,-3.79805 1.48124,-1.367298 4.1019,-1.367298 3.26632,0 5.20333,2.088927 1.937,2.050947 1.937,5.583134 v 1.443259 h -3.41824 v -1.139415 q 0,-2.392772 -1.21538,-3.684109 -1.21538,-1.329317 -3.53219,-1.329317 -2.20287,0 -3.38026,1.291337 -1.1774,1.253356 -1.1774,3.722089 v 13.293174 z"
             style="font-size:37.9805px;font-family:'JetBrains Mono';-inkscape-font-specification:'JetBrains Mono, Normal'"
             id="path4128" /></g><g
           aria-label="Pulsar"
           id="text4096"
           style="font-size:8.53494px;line-height:1.25;stroke-width:0.213374"><path
             d="M 128.66429,70.40049 V 42.674725 h 8.92542 q 2.58267,0 4.48169,1.025474 1.89903,0.987493 2.9245,2.810557 1.06346,1.823064 1.06346,4.329777 0,2.468732 -1.06346,4.329777 -1.02547,1.823064 -2.9245,2.848537 -1.89902,0.987493 -4.48169,0.987493 h -5.50718 v 11.39415 z m 3.41824,-14.47057 h 5.50718 q 2.24084,0 3.57016,-1.367298 1.3673,-1.405279 1.3673,-3.722089 0,-2.354791 -1.3673,-3.722089 -1.32932,-1.367298 -3.57016,-1.367298 h -5.50718 z"
             style="font-size:37.9805px;font-family:'JetBrains Mono';-inkscape-font-specification:'JetBrains Mono, Normal'"
             id="path4105" /><path
             d="m 159.31457,70.780295 q -3.60815,0 -5.77304,-2.126908 -2.16489,-2.164889 -2.16489,-5.848997 V 49.511215 h 3.41825 V 62.80439 q 0,2.354791 1.21537,3.684108 1.21538,1.291337 3.30431,1.291337 2.1269,0 3.34228,-1.291337 1.25336,-1.329317 1.25336,-3.684108 V 49.511215 h 3.41824 V 62.80439 q 0,3.684108 -2.20287,5.848997 -2.20287,2.126908 -5.81101,2.126908 z"
             style="font-size:37.9805px;font-family:'JetBrains Mono';-inkscape-font-specification:'JetBrains Mono, Normal'"
             id="path4107" /><path
             d="m 185.1793,70.40049 q -1.82306,0 -3.19036,-0.72163 -1.3673,-0.721629 -2.12691,-2.050947 -0.75961,-1.329317 -0.75961,-3.114401 V 45.789126 h -7.21629 v -3.114401 h 10.63454 v 21.838787 q 0,1.291337 0.72163,2.050947 0.72163,0.72163 1.937,0.72163 h 6.45669 v 3.114401 z"
             style="font-size:37.9805px;font-family:'JetBrains Mono';-inkscape-font-specification:'JetBrains Mono, Normal'"
             id="path4109" /><path
             d="m 204.28351,70.704334 q -2.12691,0 -3.79805,-0.645669 -1.67114,-0.683649 -2.62066,-1.937005 -0.91153,-1.253357 -0.91153,-2.962479 h 3.49421 q 0,1.177395 1.10143,1.861044 1.13942,0.645669 2.81056,0.645669 h 1.59518 q 2.01297,0 3.00046,-0.797591 0.98749,-0.835571 0.98749,-2.202869 0,-1.329317 -0.94951,-2.088927 -0.91153,-0.797591 -2.65864,-1.063454 l -2.81055,-0.455766 q -3.1144,-0.531727 -4.59564,-1.974986 -1.48124,-1.443259 -1.48124,-3.987952 0,-2.848538 1.82306,-4.367758 1.86105,-1.51922 5.31727,-1.51922 h 1.44326 q 3.19036,0 5.08939,1.443259 1.937,1.405279 1.937,3.76007 h -3.4942 q 0,-0.987493 -0.9875,-1.557201 -0.94951,-0.607688 -2.62065,-0.607688 h -1.44326 q -1.78508,0 -2.77258,0.75961 -0.94951,0.72163 -0.94951,2.088928 0,2.27883 3.22834,2.810557 l 2.81056,0.455766 q 3.38027,0.531727 4.89949,1.974986 1.5572,1.443258 1.5572,4.177854 0,2.886518 -1.86105,4.55766 -1.82306,1.633162 -5.54515,1.633162 z"
             style="font-size:37.9805px;font-family:'JetBrains Mono';-inkscape-font-specification:'JetBrains Mono, Normal'"
             id="path4111" /><path
             d="m 225.89443,70.780295 q -3.30431,0 -5.20333,-1.671142 -1.89903,-1.709123 -1.89903,-4.595641 0,-2.924498 1.89903,-4.59564 1.89902,-1.671142 5.12737,-1.671142 h 6.45668 v -2.088927 q 0,-1.899025 -1.17739,-2.962479 -1.13942,-1.063454 -3.19037,-1.063454 -1.82306,0 -3.07642,0.79759 -1.25335,0.797591 -1.5572,2.088928 h -3.41824 q 0.1899,-1.747103 1.25335,-3.076421 1.10144,-1.329317 2.84854,-2.050947 1.78509,-0.75961 3.94997,-0.75961 3.60815,0 5.69708,1.861045 2.08893,1.861044 2.08893,5.051406 V 70.40049 h -3.34229 v -3.987953 h -0.56971 l 0.56971,-0.569707 q 0,2.27883 -1.78508,3.608147 -1.7471,1.329318 -4.6716,1.329318 z M 226.73,68.083679 q 2.43075,0 3.98795,-1.215376 1.5572,-1.215376 1.5572,-3.114401 v -2.962479 h -6.38072 q -1.70913,0 -2.69662,0.949513 -0.98749,0.949512 -0.98749,2.582674 0,1.747103 1.17739,2.772576 1.21538,0.987493 3.34229,0.987493 z"
             style="font-size:37.9805px;font-family:'JetBrains Mono';-inkscape-font-specification:'JetBrains Mono, Normal'"
             id="path4113" /><path
             d="M 243.25153,70.40049 V 49.511215 h 3.41825 v 3.987953 h 0.72163 l -0.72163,0.79759 q 0,-2.468732 1.48124,-3.79805 1.48123,-1.367298 4.10189,-1.367298 3.26632,0 5.20333,2.088928 1.937,2.050947 1.937,5.583133 V 58.24673 H 255.975 v -1.139415 q 0,-2.392771 -1.21538,-3.684108 -1.21537,-1.329318 -3.53218,-1.329318 -2.20287,0 -3.38027,1.291337 -1.17739,1.253357 -1.17739,3.722089 V 70.40049 Z"
             style="font-size:37.9805px;font-family:'JetBrains Mono';-inkscape-font-specification:'JetBrains Mono, Normal'"
             id="path4115" /></g></g></g></g><metadata
     id="metadata6144"><rdf:RDF><cc:Work
         rdf:about=""><dc:creator><cc:Agent><dc:title>Marco4413 (https://github.com/Marco4413)</dc:title></cc:Agent></dc:creator><dc:rights><cc:Agent><dc:title>MIT Copyright (c) 2024</dc:title></cc:Agent></dc:rights></cc:Work></rdf:RDF></metadata></svg>
