<?xml version="1.0" encoding="UTF-8" standalone="no"?>
<!-- Created with Inkscape (http://www.inkscape.org/) -->

<svg
   width="640"
   height="640"
   viewBox="0 0 132.29165 132.29165"
   version="1.1"
   id="svg5"
   inkscape:version="1.2 (dc2aedaf03, 2022-05-15)"
   sodipodi:docname="ntxicon.svg"
   inkscape:export-filename=".\ntxicon.png"
   inkscape:export-xdpi="38.400002"
   inkscape:export-ydpi="38.400002"
   xml:space="preserve"
   xmlns:inkscape="http://www.inkscape.org/namespaces/inkscape"
   xmlns:sodipodi="http://sodipodi.sourceforge.net/DTD/sodipodi-0.dtd"
   xmlns:xlink="http://www.w3.org/1999/xlink"
   xmlns="http://www.w3.org/2000/svg"
   xmlns:svg="http://www.w3.org/2000/svg"
   xmlns:rdf="http://www.w3.org/1999/02/22-rdf-syntax-ns#"
   xmlns:cc="http://creativecommons.org/ns#"
   xmlns:dc="http://purl.org/dc/elements/1.1/"><sodipodi:namedview
     id="namedview7"
     pagecolor="#ffffff"
     bordercolor="#666666"
     borderopacity="1.0"
     inkscape:showpageshadow="2"
     inkscape:pageopacity="0.0"
     inkscape:pagecheckerboard="0"
     inkscape:deskcolor="#d1d1d1"
     inkscape:document-units="mm"
     showgrid="false"
     inkscape:zoom="0.64693625"
     inkscape:cx="-71.877252"
     inkscape:cy="347.79316"
     inkscape:window-width="1920"
     inkscape:window-height="1009"
     inkscape:window-x="-8"
     inkscape:window-y="-8"
     inkscape:window-maximized="1"
     inkscape:current-layer="layer1"><inkscape:grid
       type="xygrid"
       id="grid3750"
       originx="0"
       originy="0" /><sodipodi:guide
       position="0,66.145826"
       orientation="0,319.99999"
       id="guide5452"
       inkscape:locked="false" /><sodipodi:guide
       position="66.145821,66.145826"
       orientation="-319.99999,0"
       id="guide5454"
       inkscape:locked="false" /></sodipodi:namedview><defs
     id="defs2"><linearGradient
       inkscape:collect="always"
       id="linearGradient6318"><stop
         style="stop-color:#a854de;stop-opacity:1;"
         offset="0.40394974"
         id="stop7774" /><stop
         style="stop-color:#c792ea;stop-opacity:1;"
         offset="1"
         id="stop7776" /></linearGradient><radialGradient
       inkscape:collect="always"
       xlink:href="#linearGradient6318"
       id="radialGradient3912"
       cx="66.418594"
       cy="63.269749"
       fx="66.418594"
       fy="63.269749"
       r="36.677063"
       gradientTransform="matrix(1,0,0,0.97358491,0,1.6712764)"
       gradientUnits="userSpaceOnUse" /><radialGradient
       inkscape:collect="always"
       xlink:href="#linearGradient7778"
       id="radialGradient3924"
       cx="82.608521"
       cy="-39.634563"
       fx="82.608521"
       fy="-39.634563"
       r="64.882622"
       gradientTransform="matrix(1,0,0,0.36231868,0,-25.274219)"
       gradientUnits="userSpaceOnUse" /><radialGradient
       inkscape:collect="always"
       xlink:href="#linearGradient6318"
       id="radialGradient4285"
       gradientUnits="userSpaceOnUse"
       gradientTransform="matrix(1,0,0,0.97358491,0,1.6712764)"
       cx="66.418594"
       cy="63.269749"
       fx="66.418594"
       fy="63.269749"
       r="36.677063" /><radialGradient
       inkscape:collect="always"
       xlink:href="#linearGradient6318"
       id="radialGradient309"
       gradientUnits="userSpaceOnUse"
       gradientTransform="matrix(1,0,0,0.97358491,0,1.6712764)"
       cx="66.418594"
       cy="63.269749"
       fx="66.418594"
       fy="63.269749"
       r="36.677063" /></defs><g
     inkscape:label="Layer 1"
     inkscape:groupmode="layer"
     id="layer1"><g
       id="g3114"
       inkscape:label="Icon"><g
         id="g4151"
         inkscape:label="Raw"
         style="display:none"
         transform="matrix(1.7718534,0,0,1.7718534,-51.538179,-45.958888)"><text
           xml:space="preserve"
           style="font-style:normal;font-variant:normal;font-weight:normal;font-stretch:normal;font-size:138.404px;line-height:1.25;font-family:'JetBrains Mono';-inkscape-font-specification:'JetBrains Mono, Normal';font-variant-ligatures:normal;font-variant-caps:normal;font-variant-numeric:normal;font-variant-east-asian:normal;display:inline;fill:url(#radialGradient4285);fill-opacity:1;stroke:none;stroke-width:3.46009"
           x="24.897388"
           y="111.98796"
           id="text186"><tspan
             sodipodi:role="line"
             id="tspan184"
             x="24.897388"
             y="111.98796"
             style="font-style:normal;font-variant:normal;font-weight:normal;font-stretch:normal;font-size:138.404px;font-family:'JetBrains Mono';-inkscape-font-specification:'JetBrains Mono, Normal';font-variant-ligatures:normal;font-variant-caps:normal;font-variant-numeric:normal;font-variant-east-asian:normal;fill:url(#radialGradient4285);fill-opacity:1;stroke-width:3.46009">*</tspan></text></g><g
         id="g4175"
         inkscape:label="Path"
         style="display:inline"><g
           aria-label="*"
           id="text277"
           style="display:inline;font-size:138.404px;line-height:1.25;font-family:'JetBrains Mono';-inkscape-font-specification:'JetBrains Mono, Normal';fill:url(#radialGradient4285);stroke-width:3.46009"
           transform="matrix(1.7718534,0,0,1.7718534,-51.538179,-45.958888)"><path
             d="m 49.948514,98.977984 -9.965089,-6.9202 7.473817,-10.795513 q 1.799252,-2.629676 4.290524,-5.120948 2.491272,-2.629676 4.982544,-4.84414 2.629676,-2.352868 4.567332,-4.013716 L 60.88243,66.314639 Q 58.252754,66.037831 54.931058,65.761022 51.609362,65.34581 48.149262,64.65379 44.827565,63.823366 41.921081,62.854538 l -12.179552,-4.428928 4.15212,-11.487532 12.179553,4.428928 q 2.906484,0.968828 5.951372,2.76808 3.183292,1.660848 6.089776,3.598504 2.906484,1.799252 4.982544,3.4601 l 0.69202,-0.553616 q -0.69202,-2.629676 -1.522444,-5.951372 -0.830424,-3.4601 -1.38404,-7.058604 -0.553616,-3.736909 -0.553616,-6.920201 v -13.14838 h 12.179553 v 13.14838 q 0,3.183292 -0.553616,6.920201 -0.553616,3.598504 -1.38404,7.058604 -0.830424,3.321696 -1.660848,5.951372 l 0.69202,0.553616 q 2.214464,-1.660848 4.982544,-3.4601 2.906484,-1.937656 5.951372,-3.598504 3.183292,-1.799252 6.089777,-2.76808 l 12.317956,-4.428928 4.152118,11.487532 -12.317954,4.428928 q -2.76808,0.968828 -6.228181,1.799252 -3.321696,0.69202 -6.643392,1.107232 -3.321696,0.276809 -5.951372,0.553617 l -0.553616,1.107232 q 2.07606,1.660848 4.567332,4.013716 2.629676,2.214464 4.982544,4.84414 2.491272,2.491272 4.15212,4.982544 l 7.612221,10.795513 -9.965089,6.9202 -7.61222,-10.795512 q -1.660848,-2.491273 -3.321696,-5.674565 -1.522444,-3.183292 -2.906484,-6.366584 -1.245636,-3.183292 -2.07606,-5.674564 h -0.968828 q -0.830425,2.491272 -2.214465,5.674564 -1.245636,3.183292 -2.906484,6.366584 -1.522444,3.183292 -3.321696,5.674565 z"
             id="path279" /></g><path
           d="m 49.948514,98.977984 -9.965089,-6.9202 7.473817,-10.795513 q 1.799252,-2.629676 4.290524,-5.120948 2.491272,-2.629676 4.982544,-4.84414 2.629676,-2.352868 4.567332,-4.013716 L 60.88243,66.314639 Q 58.252754,66.037831 54.931058,65.761022 51.609362,65.34581 48.149262,64.65379 44.827565,63.823366 41.921081,62.854538 l -12.179552,-4.428928 4.15212,-11.487532 12.179553,4.428928 q 2.906484,0.968828 5.951372,2.76808 3.183292,1.660848 6.089776,3.598504 2.906484,1.799252 4.982544,3.4601 l 0.69202,-0.553616 q -0.69202,-2.629676 -1.522444,-5.951372 -0.830424,-3.4601 -1.38404,-7.058604 -0.553616,-3.736909 -0.553616,-6.920201 v -13.14838 h 12.179553 v 13.14838 q 0,3.183292 -0.553616,6.920201 -0.553616,3.598504 -1.38404,7.058604 -0.830424,3.321696 -1.660848,5.951372 l 0.69202,0.553616 q 2.214464,-1.660848 4.982544,-3.4601 2.906484,-1.937656 5.951372,-3.598504 3.183292,-1.799252 6.089777,-2.76808 l 12.317956,-4.428928 4.152118,11.487532 -12.317954,4.428928 q -2.76808,0.968828 -6.228181,1.799252 -3.321696,0.69202 -6.643392,1.107232 -3.321696,0.276809 -5.951372,0.553617 l -0.553616,1.107232 q 2.07606,1.660848 4.567332,4.013716 2.629676,2.214464 4.982544,4.84414 2.491272,2.491272 4.15212,4.982544 l 7.612221,10.795513 -9.965089,6.9202 -7.61222,-10.795512 q -1.660848,-2.491273 -3.321696,-5.674565 -1.522444,-3.183292 -2.906484,-6.366584 -1.245636,-3.183292 -2.07606,-5.674564 h -0.968828 q -0.830425,2.491272 -2.214465,5.674564 -1.245636,3.183292 -2.906484,6.366584 -1.522444,3.183292 -3.321696,5.674565 z"
           id="path410"
           style="font-size:138.404px;line-height:1.25;font-family:'JetBrains Mono';-inkscape-font-specification:'JetBrains Mono, Normal';display:inline;fill:none;stroke:#000000;stroke-width:0.528906;stroke-linejoin:round;stroke-dasharray:none;stroke-opacity:1"
           transform="matrix(1.7718534,0,0,1.7718534,-51.538179,-45.958888)" /></g></g></g><metadata
     id="metadata6144"><rdf:RDF><cc:Work
         rdf:about=""><dc:creator><cc:Agent><dc:title>Marco4413 (https://github.com/Marco4413)</dc:title></cc:Agent></dc:creator><dc:rights><cc:Agent><dc:title>MIT Copyright (c) 2025</dc:title></cc:Agent></dc:rights></cc:Work></rdf:RDF></metadata></svg>
